<?xml version="1.0" encoding="UTF-8" standalone="no"?>
<!-- Created with Inkscape (http://www.inkscape.org/) -->

<svg
   width="48"
   height="48"
   viewBox="0 0 12.7 12.7"
   version="1.1"
   id="svg5"
   inkscape:version="1.1.1 (3bf5ae0d25, 2021-09-20)"
   sodipodi:docname="facio.svg"
   inkscape:export-filename="C:\Users\lenovo\Desktop\绘图-1.png"
   inkscape:export-xdpi="96"
   inkscape:export-ydpi="96"
   xmlns:inkscape="http://www.inkscape.org/namespaces/inkscape"
   xmlns:sodipodi="http://sodipodi.sourceforge.net/DTD/sodipodi-0.dtd"
   xmlns="http://www.w3.org/2000/svg"
   xmlns:svg="http://www.w3.org/2000/svg">
  <sodipodi:namedview
     id="namedview7"
     pagecolor="#ffffff"
     bordercolor="#666666"
     borderopacity="1.0"
     inkscape:pageshadow="2"
     inkscape:pageopacity="0.0"
     inkscape:pagecheckerboard="0"
     inkscape:document-units="mm"
     showgrid="false"
     width="48px"
     units="px"
     inkscape:zoom="11.313709"
     inkscape:cx="11.844038"
     inkscape:cy="34.825008"
     inkscape:window-width="1920"
     inkscape:window-height="1094"
     inkscape:window-x="-11"
     inkscape:window-y="-11"
     inkscape:window-maximized="1"
     inkscape:current-layer="layer1" />
  <defs
     id="defs2">
    <clipPath
       id="clip0">
      <rect
         x="317"
         y="331"
         width="588"
         height="364"
         id="rect77" />
    </clipPath>
    <clipPath
       id="clip0-3">
      <rect
         x="325"
         y="362"
         width="589"
         height="411"
         id="rect358" />
    </clipPath>
    <clipPath
       id="clip0-4">
      <rect
         x="325"
         y="362"
         width="589"
         height="411"
         id="rect473" />
    </clipPath>
    <clipPath
       id="clip0-37">
      <rect
         x="123"
         y="264"
         width="615"
         height="482"
         id="rect710" />
    </clipPath>
  </defs>
  <g
     inkscape:label="图层 1"
     inkscape:groupmode="layer"
     id="layer1">
    <g
       clip-path="url(#clip0-37)"
       transform="matrix(0.01949486,0,0,0.0193748,-1.9031774,-3.4949147)"
       id="g729">
      <path
         d="m 699.5,267 c 19.606,0 35.5,15.894 35.5,35.499 0,9.803 -3.974,18.678 -10.398,25.102 l -7.893,5.322 v 390.869 c 0,9.504 -7.705,17.208 -17.209,17.208 v 0 c -9.504,0 -17.209,-7.705 -17.209,-17.209 V 332.923 l -7.893,-5.322 C 667.974,321.177 664,312.302 664,302.499 664,282.894 679.894,267 699.5,267 Z"
         stroke="#000000"
         stroke-width="6"
         stroke-miterlimit="8"
         fill="#ffc000"
         fill-rule="evenodd"
         id="path715" />
      <path
         d="m 127.5,741.5 v -351 l 567,351 z"
         stroke="#000000"
         stroke-width="9"
         stroke-miterlimit="8"
         fill="#ffc000"
         fill-rule="evenodd"
         id="path717" />
      <path
         d="m 513.5,579 c 0,-46.116 37.384,-83.5 83.5,-83.5 46.116,0 83.5,37.384 83.5,83.5 0,46.116 -37.384,83.5 -83.5,83.5 -46.116,0 -83.5,-37.384 -83.5,-83.5 z"
         stroke="#000000"
         stroke-width="9"
         stroke-miterlimit="8"
         fill="#ed7d31"
         fill-rule="evenodd"
         id="path719" />
      <path
         d="m 134.5,579 c 0,-46.116 37.384,-83.5 83.5,-83.5 46.116,0 83.5,37.384 83.5,83.5 0,46.116 -37.384,83.5 -83.5,83.5 -46.116,0 -83.5,-37.384 -83.5,-83.5 z"
         stroke="#000000"
         stroke-width="9"
         stroke-miterlimit="8"
         fill="#ffffff"
         fill-rule="evenodd"
         id="path721" />
      <path
         d="m 203,578.5 c 0,-8.008 6.492,-14.5 14.5,-14.5 8.008,0 14.5,6.492 14.5,14.5 0,8.008 -6.492,14.5 -14.5,14.5 -8.008,0 -14.5,-6.492 -14.5,-14.5 z"
         stroke="#2f528f"
         stroke-width="2"
         stroke-miterlimit="8"
         fill-rule="evenodd"
         id="path723" />
      <path
         d="M 0,0 1.5748e-4,68.909"
         stroke="#000000"
         stroke-width="6"
         stroke-miterlimit="8"
         fill="none"
         fill-rule="evenodd"
         transform="matrix(-1,0,0,1,218,495)"
         id="path725" />
      <path
         d="m 469.954,676.606 c 0.273,2.286 0.546,4.59 0.205,6.894 -0.342,2.304 -1.229,4.77 -2.253,6.894 -1.024,2.124 -2.389,4.212 -3.89,5.832 -1.502,1.62 -3.311,3.024 -5.12,3.906 -1.808,0.882 -3.856,1.368 -5.801,1.368 -1.946,0 -3.993,-0.486 -5.802,-1.368 -1.809,-0.882 -3.618,-2.286 -5.119,-3.906 -1.502,-1.62 -2.867,-3.708 -3.891,-5.832 -1.024,-2.124 -1.809,-4.59 -2.253,-6.894 -0.443,-2.304 -0.58,-4.77 -0.477,-6.894 0.102,-2.124 0.58,-4.212 1.16,-5.832 0.58,-1.62 1.468,-3.024 2.389,-3.906 0.921,-0.882 2.048,-1.368 3.072,-1.368 1.023,0 2.15,0.486 3.071,1.368 0.922,0.882 1.809,2.286 2.389,3.906 0.58,1.62 1.058,3.708 1.16,5.832 0.103,2.124 -0.034,4.59 -0.477,6.894 -0.444,2.304 -1.229,4.77 -2.253,6.894 -1.024,2.124 -2.389,4.212 -3.89,5.832 -1.502,1.62 -3.311,3.024 -5.12,3.906 -1.809,0.882 -3.856,1.368 -5.802,1.368 -1.945,0 -3.993,-0.486 -5.801,-1.368 -1.809,-0.882 -3.618,-2.286 -5.12,-3.906 -1.501,-1.62 -2.866,-3.708 -3.89,-5.832 -1.024,-2.124 -1.809,-4.59 -2.253,-6.894 -0.443,-2.304 -0.58,-4.77 -0.477,-6.894 0.102,-2.124 0.58,-4.212 1.16,-5.832 0.58,-1.62 1.467,-3.024 2.389,-3.906 0.921,-0.882 2.048,-1.368 3.071,-1.368 1.024,0 2.151,0.486 3.072,1.368 0.921,0.882 1.809,2.286 2.389,3.906 0.58,1.62 1.058,3.708 1.16,5.832 0.103,2.124 -0.034,4.59 -0.477,6.894 -0.444,2.304 -1.229,4.77 -2.253,6.894 -1.024,2.124 -2.389,4.212 -3.891,5.832 -1.501,1.62 -3.31,3.024 -5.119,3.906 -1.809,0.882 -3.856,1.368 -5.802,1.368 -1.945,0 -3.993,-0.486 -5.801,-1.368 -1.809,-0.882 -3.618,-2.286 -5.12,-3.906 -1.501,-1.62 -2.866,-3.708 -3.89,-5.832 -1.024,-2.124 -1.809,-4.59 -2.253,-6.894 -0.443,-2.304 -0.58,-4.77 -0.478,-6.894 0.103,-2.124 0.581,-4.212 1.161,-5.832 0.58,-1.62 1.467,-3.024 2.389,-3.906 0.921,-0.882 2.047,-1.368 3.071,-1.368 1.024,0 2.15,0.486 3.072,1.368 0.921,0.882 1.809,2.286 2.389,3.906 0.58,1.62 1.058,3.708 1.16,5.832 0.103,2.124 -0.034,4.59 -0.478,6.894 -0.443,2.304 -1.228,4.77 -2.252,6.894 -1.024,2.124 -2.389,4.212 -3.891,5.832 -1.501,1.62 -3.31,3.024 -5.119,3.906 -1.809,0.882 -3.856,1.368 -5.802,1.368 -1.945,0 -3.993,-0.486 -5.802,-1.368 -1.808,-0.882 -3.617,-2.286 -5.119,-3.906 -1.501,-1.62 -2.867,-3.708 -3.89,-5.832 -1.024,-2.124 -1.809,-4.59 -2.253,-6.894 -0.444,-2.304 -0.58,-4.77 -0.478,-6.894 0.103,-2.124 0.581,-4.212 1.161,-5.832 0.58,-1.62 1.467,-3.024 2.389,-3.906 0.921,-0.882 2.047,-1.368 3.071,-1.368 1.024,0 2.15,0.486 3.072,1.368 0.921,0.882 1.809,2.286 2.389,3.906 0.58,1.62 1.058,3.708 1.16,5.832 0.102,2.124 -0.034,4.59 -0.478,6.894 -0.443,2.304 -1.228,4.77 -2.252,6.894 -1.024,2.124 -2.389,4.212 -3.891,5.832 -1.501,1.62 -3.31,3.024 -5.119,3.906 -1.809,0.882 -3.857,1.368 -5.802,1.368 -1.945,0 -3.993,-0.486 -5.802,-1.368 -1.808,-0.882 -3.617,-2.286 -5.119,-3.906 -1.502,-1.62 -2.867,-3.708 -3.891,-5.832 -1.023,-2.124 -1.808,-4.59 -2.252,-6.894 -0.444,-2.304 -0.58,-4.77 -0.478,-6.894 0.103,-2.124 0.58,-4.212 1.161,-5.832 0.58,-1.62 1.467,-3.024 2.389,-3.906 0.921,-0.882 2.047,-1.368 3.071,-1.368 1.024,0 2.15,0.486 3.072,1.368 0.921,0.882 1.808,2.286 2.389,3.906 0.58,1.62 1.058,3.708 1.16,5.832 0.102,2.124 -0.034,4.59 -0.478,6.894 -0.443,2.304 -1.228,4.77 -2.252,6.894 -1.024,2.124 -2.389,4.212 -3.891,5.832 -1.502,1.62 -3.31,3.024 -5.119,3.906 -1.809,0.882 -3.857,1.368 -5.802,1.368 -1.945,0 -3.993,-0.486 -5.802,-1.368 -1.809,-0.882 -3.617,-2.286 -5.119,-3.906 -1.502,-1.62 -2.867,-3.708 -3.891,-5.832 -1.023,-2.124 -1.808,-4.59 -2.252,-6.894 -0.444,-2.304 -0.58,-4.77 -0.478,-6.894 0.102,-2.124 0.58,-4.212 1.16,-5.832 0.581,-1.62 1.468,-3.024 2.389,-3.906 0.922,-0.882 2.048,-1.368 3.072,-1.368 1.024,0 2.15,0.486 3.072,1.368 0.921,0.882 1.808,2.286 2.389,3.906 0.58,1.62 1.058,3.708 1.16,5.832 0.102,2.124 -0.034,4.59 -0.478,6.894 -0.444,2.304 -1.229,4.77 -2.252,6.894 -1.024,2.124 -2.389,4.212 -3.891,5.832 -1.502,1.62 -3.31,3.024 -5.119,3.906 -1.809,0.882 -3.857,1.368 -5.802,1.368 -1.945,0 -3.993,-0.486 -5.802,-1.368 -1.809,-0.882 -3.617,-2.286 -5.119,-3.906 -1.502,-1.62 -2.867,-3.708 -3.891,-5.832 -1.024,-2.124 -1.809,-4.59 -2.252,-6.894 -0.444,-2.304 -0.444,-4.608 -0.478,-6.894"
         stroke="#000000"
         stroke-width="4.5"
         stroke-linejoin="round"
         stroke-miterlimit="10"
         fill="none"
         fill-rule="evenodd"
         id="path727" />
    </g>
  </g>
</svg>
